<svg width="800" height="800" viewBox="0 0 800 800" fill="none" xmlns="http://www.w3.org/2000/svg">
<g clip-path="url(#clip0_167_2)">
<path d="M470.738 348.612C454.877 326.408 428.866 311.816 399.683 311.816C370.5 311.816 344.489 326.408 328.628 348.612C318.477 363.204 312.133 380.967 312.133 400C312.133 448.216 351.467 487.55 399.683 487.55C447.899 487.55 487.232 448.216 487.232 400C487.232 380.967 480.888 363.204 470.738 348.612Z" fill="#1582C5"/>
<path d="M525.932 349.247C532.276 361.935 536.082 382.236 536.082 400C536.082 474.861 475.178 536.4 399.683 536.4C324.187 536.4 263.283 475.496 263.283 400C263.283 381.602 267.09 361.935 273.434 349.247H196.669V552.895C196.669 579.54 220.143 603.013 246.788 603.013H552.577C579.223 603.013 602.696 579.54 602.696 552.895V349.247H525.932Z" fill="#1582C5"/>
<path d="M579.857 208.406H506.265V292.784H590.008V219.191V207.772L579.857 208.406Z" fill="#1582C5"/>
<path d="M598.89 0.317139H200.476C90.0872 0.317139 0 90.4044 0 200.793V599.841C0 709.596 90.0872 799.683 200.476 799.683H599.524C709.913 799.683 800 709.595 800 599.207V200.793C799.366 90.4044 709.278 0.317139 598.89 0.317139ZM647.105 348.612V552.894C647.105 606.186 605.868 647.423 552.577 647.423H246.788C193.497 647.423 152.26 606.186 152.26 552.894V348.612V247.105C152.26 193.814 193.497 152.577 246.788 152.577H552.577C605.868 152.577 647.105 193.814 647.105 247.105V348.612Z" fill="#1582C5"/>
</g>
<defs>
<clipPath id="clip0_167_2">
<rect width="800" height="800" fill="white"/>
</clipPath>
</defs>
</svg>
