<svg width="800" height="800" viewBox="0 0 800 800" fill="none" xmlns="http://www.w3.org/2000/svg">
<g clip-path="url(#clip0_167_15)">
<path d="M348.571 321.27V467.302L483.175 394.921L348.571 321.27Z" fill="#1582C5"/>
<path d="M599.365 0H200C90.1587 0 0 90.1587 0 200.635V600C0 709.841 90.1587 800 200 800H599.365C709.841 800 800 709.841 800 599.365V200.635C800 90.1587 709.841 0 599.365 0ZM647.619 419.683C647.619 461.587 643.81 504.127 643.81 504.127C643.81 504.127 639.365 539.683 624.762 555.556C605.714 576.508 584.762 576.508 575.238 577.778C505.397 582.857 400.635 583.492 400.635 583.492C400.635 583.492 270.476 581.587 230.476 577.778C219.683 575.873 194.286 576.508 175.238 555.556C160 539.683 156.19 504.127 156.19 504.127C156.19 504.127 152.381 461.587 152.381 419.683V380.317C152.381 338.413 156.19 295.873 156.19 295.873C156.19 295.873 160.635 260.317 175.238 244.444C194.286 223.492 215.238 222.857 224.762 221.587C295.238 216.508 400 215.873 400 215.873C400 215.873 504.762 216.508 574.603 221.587C584.127 222.857 605.714 223.492 624.762 243.81C640 259.683 643.81 295.873 643.81 295.873C643.81 295.873 647.619 338.413 647.619 380.317V419.683Z" fill="#1582C5"/>
</g>
<defs>
<clipPath id="clip0_167_15">
<rect width="800" height="800" fill="white"/>
</clipPath>
</defs>
</svg>
